<mxfile host="app.diagrams.net" modified="2020-06-29T09:40:46.259Z" agent="5.0 (Windows NT 6.1; WOW64) AppleWebKit/537.36 (KHTML, like Gecko) Chrome/72.0.3626.81 Safari/537.36 SE 2.X MetaSr 1.0" etag="C2fbkb5v77sap1_8zKMl" version="13.3.5" type="github">
  <diagram id="BBSHnnYNTmxUzGk20KXa" name="第 1 页">
    <mxGraphModel dx="478" dy="242" grid="1" gridSize="10" guides="1" tooltips="1" connect="1" arrows="1" fold="1" page="1" pageScale="1" pageWidth="900" pageHeight="280" math="0" shadow="0">
      <root>
        <mxCell id="0" />
        <mxCell id="1" parent="0" />
        <mxCell id="rYf9snjbs0KQ4uGIyoVZ-1" value="" style="shape=image;verticalLabelPosition=bottom;labelBackgroundColor=#ffffff;verticalAlign=top;aspect=fixed;imageAspect=0;image=data:image/svg+xml,PHN2ZyB4bWxucz0iaHR0cDovL3d3dy53My5vcmcvMjAwMC9zdmciIHZpZXdCb3g9IjAgMCAxNDk2IDQwMCI+PGc+PGc+PGc+PGc+PGc+PGxpbmUgeDE9IjUzLjEyNSIgeTE9IjM3NyIgeDI9IjQ4LjEyNSIgeTI9IjM3NyIgc3R5bGU9InZpc2liaWxpdHk6IGluaGVyaXQ7IiBmaWxsPSJyZ2IoMCwgMCwgMCkiIHN0cm9rZT0icmdiKDIwNCwgMjA0LCAyMDQpIiBzdHJva2Utd2lkdGg9IjFweCIvPjxsaW5lIHgxPSI1My4xMjUiIHkxPSIzMzUuMTExMTExMTExMTExMSIgeDI9IjQ4LjEyNSIgeTI9IjMzNS4xMTExMTExMTExMTExIiBzdHlsZT0idmlzaWJpbGl0eTogaW5oZXJpdDsiIGZpbGw9InJnYigwLCAwLCAwKSIgc3Ryb2tlPSJyZ2IoMjA0LCAyMDQsIDIwNCkiIHN0cm9rZS13aWR0aD0iMXB4Ii8+PGxpbmUgeDE9IjUzLjEyNSIgeTE9IjI5My4yMjIyMjIyMjIyMjIzNCIgeDI9IjQ4LjEyNSIgeTI9IjI5My4yMjIyMjIyMjIyMjIzNCIgc3R5bGU9InZpc2liaWxpdHk6IGluaGVyaXQ7IiBmaWxsPSJyZ2IoMCwgMCwgMCkiIHN0cm9rZT0icmdiKDIwNCwgMjA0LCAyMDQpIiBzdHJva2Utd2lkdGg9IjFweCIvPjxsaW5lIHgxPSI1My4xMjUiIHkxPSIyNTEuMzMzMzMzMzMzMzMzNCIgeDI9IjQ4LjEyNSIgeTI9IjI1MS4zMzMzMzMzMzMzMzM0IiBzdHlsZT0idmlzaWJpbGl0eTogaW5oZXJpdDsiIGZpbGw9InJnYigwLCAwLCAwKSIgc3Ryb2tlPSJyZ2IoMjA0LCAyMDQsIDIwNCkiIHN0cm9rZS13aWR0aD0iMXB4Ii8+PGxpbmUgeDE9IjUzLjEyNSIgeTE9IjIwOS40NDQ0NDQ0NDQ0NDQ0OSIgeDI9IjQ4LjEyNSIgeTI9IjIwOS40NDQ0NDQ0NDQ0NDQ0OSIgc3R5bGU9InZpc2liaWxpdHk6IGluaGVyaXQ7IiBmaWxsPSJyZ2IoMCwgMCwgMCkiIHN0cm9rZT0icmdiKDIwNCwgMjA0LCAyMDQpIiBzdHJva2Utd2lkdGg9IjFweCIvPjxsaW5lIHgxPSI1My4xMjUiIHkxPSIxNjcuNTU1NTU1NTU1NTU1NTQiIHgyPSI0OC4xMjUiIHkyPSIxNjcuNTU1NTU1NTU1NTU1NTQiIHN0eWxlPSJ2aXNpYmlsaXR5OiBpbmhlcml0OyIgZmlsbD0icmdiKDAsIDAsIDApIiBzdHJva2U9InJnYigyMDQsIDIwNCwgMjA0KSIgc3Ryb2tlLXdpZHRoPSIxcHgiLz48bGluZSB4MT0iNTMuMTI1IiB5MT0iMTI1LjY2NjY2NjY2NjY2NjYiIHgyPSI0OC4xMjUiIHkyPSIxMjUuNjY2NjY2NjY2NjY2NiIgc3R5bGU9InZpc2liaWxpdHk6IGluaGVyaXQ7IiBmaWxsPSJyZ2IoMCwgMCwgMCkiIHN0cm9rZT0icmdiKDIwNCwgMjA0LCAyMDQpIiBzdHJva2Utd2lkdGg9IjFweCIvPjxsaW5lIHgxPSI1My4xMjUiIHkxPSI4My43Nzc3Nzc3Nzc3Nzc2NiIgeDI9IjQ4LjEyNSIgeTI9IjgzLjc3Nzc3Nzc3Nzc3NzY2IiBzdHlsZT0idmlzaWJpbGl0eTogaW5oZXJpdDsiIGZpbGw9InJnYigwLCAwLCAwKSIgc3Ryb2tlPSJyZ2IoMjA0LCAyMDQsIDIwNCkiIHN0cm9rZS13aWR0aD0iMXB4Ii8+PGxpbmUgeDE9IjUzLjEyNSIgeTE9IjQxLjg4ODg4ODg4ODg4ODk3IiB4Mj0iNDguMTI1IiB5Mj0iNDEuODg4ODg4ODg4ODg4OTciIHN0eWxlPSJ2aXNpYmlsaXR5OiBpbmhlcml0OyIgZmlsbD0icmdiKDAsIDAsIDApIiBzdHJva2U9InJnYigyMDQsIDIwNCwgMjA0KSIgc3Ryb2tlLXdpZHRoPSIxcHgiLz48bGluZSB4MT0iNTMuMTI1IiB5MT0iMCIgeDI9IjQ4LjEyNSIgeTI9IjAiIHN0eWxlPSJ2aXNpYmlsaXR5OiBpbmhlcml0OyIgZmlsbD0icmdiKDAsIDAsIDApIiBzdHJva2U9InJnYigyMDQsIDIwNCwgMjA0KSIgc3Ryb2tlLXdpZHRoPSIxcHgiLz48L2c+PGcgdHJhbnNmb3JtPSJ0cmFuc2xhdGUoNDMuMTI1LCAwKSI+PHRleHQgeD0iMCIgeT0iMzc3IiBkeD0iMGVtIiBkeT0iMC4zZW0iIHN0eWxlPSJ0ZXh0LWFuY2hvcjogZW5kOyB2aXNpYmlsaXR5OiBoaWRkZW47IGZvbnQtZmFtaWx5OiAmcXVvdDtIZWx2ZXRpY2EgTmV1ZSZxdW90Oywgc2Fucy1zZXJpZjsgZm9udC1zaXplOiAxMnB4OyBmb250LXdlaWdodDogMjAwOyIgZmlsbD0icmdiKDUwLCA0OSwgNjMpIiBzdHJva2U9Im5vbmUiIHN0cm9rZS13aWR0aD0iMXB4Ij4wLjc4PC90ZXh0Pjx0ZXh0IHg9IjAiIHk9IjMzNS4xMTExMTExMTExMTExIiBkeD0iMGVtIiBkeT0iMC4zZW0iIHN0eWxlPSJ0ZXh0LWFuY2hvcjogZW5kOyB2aXNpYmlsaXR5OiBpbmhlcml0OyBmb250LWZhbWlseTogJnF1b3Q7SGVsdmV0aWNhIE5ldWUmcXVvdDssIHNhbnMtc2VyaWY7IGZvbnQtc2l6ZTogMTJweDsgZm9udC13ZWlnaHQ6IDIwMDsiIGZpbGw9InJnYig1MCwgNDksIDYzKSIgc3Ryb2tlPSJub25lIiBzdHJva2Utd2lkdGg9IjFweCI+MC44PC90ZXh0Pjx0ZXh0IHg9IjAiIHk9IjI5My4yMjIyMjIyMjIyMjIzNCIgZHg9IjBlbSIgZHk9IjAuM2VtIiBzdHlsZT0idGV4dC1hbmNob3I6IGVuZDsgdmlzaWJpbGl0eTogaW5oZXJpdDsgZm9udC1mYW1pbHk6ICZxdW90O0hlbHZldGljYSBOZXVlJnF1b3Q7LCBzYW5zLXNlcmlmOyBmb250LXNpemU6IDEycHg7IGZvbnQtd2VpZ2h0OiAyMDA7IiBmaWxsPSJyZ2IoNTAsIDQ5LCA2MykiIHN0cm9rZT0ibm9uZSIgc3Ryb2tlLXdpZHRoPSIxcHgiPjAuODI8L3RleHQ+PHRleHQgeD0iMCIgeT0iMjUxLjMzMzMzMzMzMzMzMzQiIGR4PSIwZW0iIGR5PSIwLjNlbSIgc3R5bGU9InRleHQtYW5jaG9yOiBlbmQ7IHZpc2liaWxpdHk6IGluaGVyaXQ7IGZvbnQtZmFtaWx5OiAmcXVvdDtIZWx2ZXRpY2EgTmV1ZSZxdW90Oywgc2Fucy1zZXJpZjsgZm9udC1zaXplOiAxMnB4OyBmb250LXdlaWdodDogMjAwOyIgZmlsbD0icmdiKDUwLCA0OSwgNjMpIiBzdHJva2U9Im5vbmUiIHN0cm9rZS13aWR0aD0iMXB4Ij4wLjg0PC90ZXh0Pjx0ZXh0IHg9IjAiIHk9IjIwOS40NDQ0NDQ0NDQ0NDQ0OSIgZHg9IjBlbSIgZHk9IjAuM2VtIiBzdHlsZT0idGV4dC1hbmNob3I6IGVuZDsgdmlzaWJpbGl0eTogaW5oZXJpdDsgZm9udC1mYW1pbHk6ICZxdW90O0hlbHZldGljYSBOZXVlJnF1b3Q7LCBzYW5zLXNlcmlmOyBmb250LXNpemU6IDEycHg7IGZvbnQtd2VpZ2h0OiAyMDA7IiBmaWxsPSJyZ2IoNTAsIDQ5LCA2MykiIHN0cm9rZT0ibm9uZSIgc3Ryb2tlLXdpZHRoPSIxcHgiPjAuODY8L3RleHQ+PHRleHQgeD0iMCIgeT0iMTY3LjU1NTU1NTU1NTU1NTU0IiBkeD0iMGVtIiBkeT0iMC4zZW0iIHN0eWxlPSJ0ZXh0LWFuY2hvcjogZW5kOyB2aXNpYmlsaXR5OiBpbmhlcml0OyBmb250LWZhbWlseTogJnF1b3Q7SGVsdmV0aWNhIE5ldWUmcXVvdDssIHNhbnMtc2VyaWY7IGZvbnQtc2l6ZTogMTJweDsgZm9udC13ZWlnaHQ6IDIwMDsiIGZpbGw9InJnYig1MCwgNDksIDYzKSIgc3Ryb2tlPSJub25lIiBzdHJva2Utd2lkdGg9IjFweCI+MC44ODwvdGV4dD48dGV4dCB4PSIwIiB5PSIxMjUuNjY2NjY2NjY2NjY2NiIgZHg9IjBlbSIgZHk9IjAuM2VtIiBzdHlsZT0idGV4dC1hbmNob3I6IGVuZDsgdmlzaWJpbGl0eTogaW5oZXJpdDsgZm9udC1mYW1pbHk6ICZxdW90O0hlbHZldGljYSBOZXVlJnF1b3Q7LCBzYW5zLXNlcmlmOyBmb250LXNpemU6IDEycHg7IGZvbnQtd2VpZ2h0OiAyMDA7IiBmaWxsPSJyZ2IoNTAsIDQ5LCA2MykiIHN0cm9rZT0ibm9uZSIgc3Ryb2tlLXdpZHRoPSIxcHgiPjAuOTwvdGV4dD48dGV4dCB4PSIwIiB5PSI4My43Nzc3Nzc3Nzc3Nzc2NiIgZHg9IjBlbSIgZHk9IjAuM2VtIiBzdHlsZT0idGV4dC1hbmNob3I6IGVuZDsgdmlzaWJpbGl0eTogaW5oZXJpdDsgZm9udC1mYW1pbHk6ICZxdW90O0hlbHZldGljYSBOZXVlJnF1b3Q7LCBzYW5zLXNlcmlmOyBmb250LXNpemU6IDEycHg7IGZvbnQtd2VpZ2h0OiAyMDA7IiBmaWxsPSJyZ2IoNTAsIDQ5LCA2MykiIHN0cm9rZT0ibm9uZSIgc3Ryb2tlLXdpZHRoPSIxcHgiPjAuOTI8L3RleHQ+PHRleHQgeD0iMCIgeT0iNDEuODg4ODg4ODg4ODg4OTciIGR4PSIwZW0iIGR5PSIwLjNlbSIgc3R5bGU9InRleHQtYW5jaG9yOiBlbmQ7IHZpc2liaWxpdHk6IGluaGVyaXQ7IGZvbnQtZmFtaWx5OiAmcXVvdDtIZWx2ZXRpY2EgTmV1ZSZxdW90Oywgc2Fucy1zZXJpZjsgZm9udC1zaXplOiAxMnB4OyBmb250LXdlaWdodDogMjAwOyIgZmlsbD0icmdiKDUwLCA0OSwgNjMpIiBzdHJva2U9Im5vbmUiIHN0cm9rZS13aWR0aD0iMXB4Ij4wLjk0PC90ZXh0Pjx0ZXh0IHg9IjAiIHk9IjAiIGR4PSIwZW0iIGR5PSIwLjNlbSIgc3R5bGU9InRleHQtYW5jaG9yOiBlbmQ7IHZpc2liaWxpdHk6IGhpZGRlbjsgZm9udC1mYW1pbHk6ICZxdW90O0hlbHZldGljYSBOZXVlJnF1b3Q7LCBzYW5zLXNlcmlmOyBmb250LXNpemU6IDEycHg7IGZvbnQtd2VpZ2h0OiAyMDA7IiBmaWxsPSJyZ2IoNTAsIDQ5LCA2MykiIHN0cm9rZT0ibm9uZSIgc3Ryb2tlLXdpZHRoPSIxcHgiPjAuOTY8L3RleHQ+PC9nPjxsaW5lIHgxPSI1My4xMjUiIHkxPSIwIiB4Mj0iNTMuMTI1IiB5Mj0iMzc3IiBmaWxsPSJyZ2IoMCwgMCwgMCkiIHN0cm9rZT0icmdiKDIwNCwgMjA0LCAyMDQpIiBzdHJva2Utd2lkdGg9IjFweCIvPjwvZz48L2c+PGcgdHJhbnNmb3JtPSJ0cmFuc2xhdGUoNTMsIDApIiBjbGlwLXBhdGg9InVybCgjY2xpcF8wKSI+PGNsaXBQYXRoIGlkPSJjbGlwXzAiPjxyZWN0IHdpZHRoPSIxNDQyIiBoZWlnaHQ9IjM3NyIvPjwvY2xpcFBhdGg+PGc+PGc+PGc+PGxpbmUgeDE9IjAiIHkxPSIwIiB4Mj0iMCIgeTI9IjM3NyIgZmlsbD0icmdiKDAsIDAsIDApIiBzdHJva2U9InJnYig2MCwgNjAsIDYwKSIgc3Ryb2tlLXdpZHRoPSIxcHgiIG9wYWNpdHk9IjAuMjUiLz48bGluZSB4MT0iMTIwLjIzOTU4MzMzMzMzMzMzIiB5MT0iMCIgeDI9IjEyMC4yMzk1ODMzMzMzMzMzMyIgeTI9IjM3NyIgZmlsbD0icmdiKDAsIDAsIDApIiBzdHJva2U9InJnYig2MCwgNjAsIDYwKSIgc3Ryb2tlLXdpZHRoPSIxcHgiIG9wYWNpdHk9IjAuMjUiLz48bGluZSB4MT0iMjQwLjQ3OTE2NjY2NjY2NjY2IiB5MT0iMCIgeDI9IjI0MC40NzkxNjY2NjY2NjY2NiIgeTI9IjM3NyIgZmlsbD0icmdiKDAsIDAsIDApIiBzdHJva2U9InJnYig2MCwgNjAsIDYwKSIgc3Ryb2tlLXdpZHRoPSIxcHgiIG9wYWNpdHk9IjAuMjUiLz48bGluZSB4MT0iMzYwLjcxODc1IiB5MT0iMCIgeDI9IjM2MC43MTg3NSIgeTI9IjM3NyIgZmlsbD0icmdiKDAsIDAsIDApIiBzdHJva2U9InJnYig2MCwgNjAsIDYwKSIgc3Ryb2tlLXdpZHRoPSIxcHgiIG9wYWNpdHk9IjAuMjUiLz48bGluZSB4MT0iNDgwLjk1ODMzMzMzMzMzMzMiIHkxPSIwIiB4Mj0iNDgwLjk1ODMzMzMzMzMzMzMiIHkyPSIzNzciIGZpbGw9InJnYigwLCAwLCAwKSIgc3Ryb2tlPSJyZ2IoNjAsIDYwLCA2MCkiIHN0cm9rZS13aWR0aD0iMXB4IiBvcGFjaXR5PSIwLjI1Ii8+PGxpbmUgeDE9IjYwMS4xOTc5MTY2NjY2NjY3IiB5MT0iMCIgeDI9IjYwMS4xOTc5MTY2NjY2NjY3IiB5Mj0iMzc3IiBmaWxsPSJyZ2IoMCwgMCwgMCkiIHN0cm9rZT0icmdiKDYwLCA2MCwgNjApIiBzdHJva2Utd2lkdGg9IjFweCIgb3BhY2l0eT0iMC4yNSIvPjxsaW5lIHgxPSI3MjEuNDM3NSIgeTE9IjAiIHgyPSI3MjEuNDM3NSIgeTI9IjM3NyIgZmlsbD0icmdiKDAsIDAsIDApIiBzdHJva2U9InJnYig2MCwgNjAsIDYwKSIgc3Ryb2tlLXdpZHRoPSIxcHgiIG9wYWNpdHk9IjAuMjUiLz48bGluZSB4MT0iODQxLjY3NzA4MzMzMzMzMzQiIHkxPSIwIiB4Mj0iODQxLjY3NzA4MzMzMzMzMzQiIHkyPSIzNzciIGZpbGw9InJnYigwLCAwLCAwKSIgc3Ryb2tlPSJyZ2IoNjAsIDYwLCA2MCkiIHN0cm9rZS13aWR0aD0iMXB4IiBvcGFjaXR5PSIwLjI1Ii8+PGxpbmUgeDE9Ijk2MS45MTY2NjY2NjY2NjY2IiB5MT0iMCIgeDI9Ijk2MS45MTY2NjY2NjY2NjY2IiB5Mj0iMzc3IiBmaWxsPSJyZ2IoMCwgMCwgMCkiIHN0cm9rZT0icmdiKDYwLCA2MCwgNjApIiBzdHJva2Utd2lkdGg9IjFweCIgb3BhY2l0eT0iMC4yNSIvPjxsaW5lIHgxPSIxMDgyLjE1NjI1IiB5MT0iMCIgeDI9IjEwODIuMTU2MjUiIHkyPSIzNzciIGZpbGw9InJnYigwLCAwLCAwKSIgc3Ryb2tlPSJyZ2IoNjAsIDYwLCA2MCkiIHN0cm9rZS13aWR0aD0iMXB4IiBvcGFjaXR5PSIwLjI1Ii8+PGxpbmUgeDE9IjEyMDIuMzk1ODMzMzMzMzMzNSIgeTE9IjAiIHgyPSIxMjAyLjM5NTgzMzMzMzMzMzUiIHkyPSIzNzciIGZpbGw9InJnYigwLCAwLCAwKSIgc3Ryb2tlPSJyZ2IoNjAsIDYwLCA2MCkiIHN0cm9rZS13aWR0aD0iMXB4IiBvcGFjaXR5PSIwLjI1Ii8+PGxpbmUgeDE9IjEzMjIuNjM1NDE2NjY2NjY2NSIgeTE9IjAiIHgyPSIxMzIyLjYzNTQxNjY2NjY2NjUiIHkyPSIzNzciIGZpbGw9InJnYigwLCAwLCAwKSIgc3Ryb2tlPSJyZ2IoNjAsIDYwLCA2MCkiIHN0cm9rZS13aWR0aD0iMXB4IiBvcGFjaXR5PSIwLjI1Ii8+PGxpbmUgeDE9IjE0NDIuODc1IiB5MT0iMCIgeDI9IjE0NDIuODc1IiB5Mj0iMzc3IiBmaWxsPSJyZ2IoMCwgMCwgMCkiIHN0cm9rZT0icmdiKDYwLCA2MCwgNjApIiBzdHJva2Utd2lkdGg9IjFweCIgb3BhY2l0eT0iMC4yNSIvPjwvZz48Zz48bGluZSB4MT0iMCIgeTE9IjM3NyIgeDI9IjE0NDIuODc1IiB5Mj0iMzc3IiBmaWxsPSJyZ2IoMCwgMCwgMCkiIHN0cm9rZT0icmdiKDYwLCA2MCwgNjApIiBzdHJva2Utd2lkdGg9IjFweCIgb3BhY2l0eT0iMC4yNSIvPjxsaW5lIHgxPSIwIiB5MT0iMzM1LjExMTExMTExMTExMTEiIHgyPSIxNDQyLjg3NSIgeTI9IjMzNS4xMTExMTExMTExMTExIiBmaWxsPSJyZ2IoMCwgMCwgMCkiIHN0cm9rZT0icmdiKDYwLCA2MCwgNjApIiBzdHJva2Utd2lkdGg9IjFweCIgb3BhY2l0eT0iMC4yNSIvPjxsaW5lIHgxPSIwIiB5MT0iMjkzLjIyMjIyMjIyMjIyMjM0IiB4Mj0iMTQ0Mi44NzUiIHkyPSIyOTMuMjIyMjIyMjIyMjIyMzQiIGZpbGw9InJnYigwLCAwLCAwKSIgc3Ryb2tlPSJyZ2IoNjAsIDYwLCA2MCkiIHN0cm9rZS13aWR0aD0iMXB4IiBvcGFjaXR5PSIwLjI1Ii8+PGxpbmUgeDE9IjAiIHkxPSIyNTEuMzMzMzMzMzMzMzMzNCIgeDI9IjE0NDIuODc1IiB5Mj0iMjUxLjMzMzMzMzMzMzMzMzQiIGZpbGw9InJnYigwLCAwLCAwKSIgc3Ryb2tlPSJyZ2IoNjAsIDYwLCA2MCkiIHN0cm9rZS13aWR0aD0iMXB4IiBvcGFjaXR5PSIwLjI1Ii8+PGxpbmUgeDE9IjAiIHkxPSIyMDkuNDQ0NDQ0NDQ0NDQ0NDkiIHgyPSIxNDQyLjg3NSIgeTI9IjIwOS40NDQ0NDQ0NDQ0NDQ0OSIgZmlsbD0icmdiKDAsIDAsIDApIiBzdHJva2U9InJnYig2MCwgNjAsIDYwKSIgc3Ryb2tlLXdpZHRoPSIxcHgiIG9wYWNpdHk9IjAuMjUiLz48bGluZSB4MT0iMCIgeTE9IjE2Ny41NTU1NTU1NTU1NTU1NCIgeDI9IjE0NDIuODc1IiB5Mj0iMTY3LjU1NTU1NTU1NTU1NTU0IiBmaWxsPSJyZ2IoMCwgMCwgMCkiIHN0cm9rZT0icmdiKDYwLCA2MCwgNjApIiBzdHJva2Utd2lkdGg9IjFweCIgb3BhY2l0eT0iMC4yNSIvPjxsaW5lIHgxPSIwIiB5MT0iMTI1LjY2NjY2NjY2NjY2NjYiIHgyPSIxNDQyLjg3NSIgeTI9IjEyNS42NjY2NjY2NjY2NjY2IiBmaWxsPSJyZ2IoMCwgMCwgMCkiIHN0cm9rZT0icmdiKDYwLCA2MCwgNjApIiBzdHJva2Utd2lkdGg9IjFweCIgb3BhY2l0eT0iMC4yNSIvPjxsaW5lIHgxPSIwIiB5MT0iODMuNzc3Nzc3Nzc3Nzc3NjYiIHgyPSIxNDQyLjg3NSIgeTI9IjgzLjc3Nzc3Nzc3Nzc3NzY2IiBmaWxsPSJyZ2IoMCwgMCwgMCkiIHN0cm9rZT0icmdiKDYwLCA2MCwgNjApIiBzdHJva2Utd2lkdGg9IjFweCIgb3BhY2l0eT0iMC4yNSIvPjxsaW5lIHgxPSIwIiB5MT0iNDEuODg4ODg4ODg4ODg4OTciIHgyPSIxNDQyLjg3NSIgeTI9IjQxLjg4ODg4ODg4ODg4ODk3IiBmaWxsPSJyZ2IoMCwgMCwgMCkiIHN0cm9rZT0icmdiKDYwLCA2MCwgNjApIiBzdHJva2Utd2lkdGg9IjFweCIgb3BhY2l0eT0iMC4yNSIvPjxsaW5lIHgxPSIwIiB5MT0iMCIgeDI9IjE0NDIuODc1IiB5Mj0iMCIgZmlsbD0icmdiKDAsIDAsIDApIiBzdHJva2U9InJnYig2MCwgNjAsIDYwKSIgc3Ryb2tlLXdpZHRoPSIxcHgiIG9wYWNpdHk9IjAuMjUiLz48L2c+PC9nPjwvZz48Zz48Zz48bGluZSB4MT0iMCIgeTE9IjIwMTAuNjY2NjY2NjY2NjY3MiIgeDI9IjE0NDIuODc1IiB5Mj0iMjAxMC42NjY2NjY2NjY2NjcyIiBmaWxsPSJyZ2IoMCwgMCwgMCkiIHN0cm9rZT0icmdiKDE1MywgMTUzLCAxNTMpIiBzdHJva2Utd2lkdGg9IjEuNXB4Ii8+PC9nPjwvZz48Zz48Zz48bGluZSB4MT0iMTIwLjIzOTU4MzMzMzMzMzMzIiB5MT0iMCIgeDI9IjEyMC4yMzk1ODMzMzMzMzMzMyIgeTI9IjM3NyIgZmlsbD0icmdiKDAsIDAsIDApIiBzdHJva2U9InJnYigxNTMsIDE1MywgMTUzKSIgc3Ryb2tlLXdpZHRoPSIxLjVweCIvPjwvZz48L2c+PGc+PGc+PGc+PGc+PGc+PHBhdGggc3Ryb2tlPSJyZ2IoMCwgMTE5LCAxODcpIiBzdHJva2Utd2lkdGg9IjJweCIgZD0iTTEyMC4yMzk1ODMzMzMzMzMzMywyNzIuMTMxNTAxODczMzM0MDZMMTQ0LjI4NzUsMjcyLjEzMTUwMTg3MzMzNDVMMTY4LjMzNTQxNjY2NjY2NjY3LDI3NC44NjgwMjE1MzQ5MDM5TDE5Mi4zODMzMzMzMzMzMzMzMywyNzMuOTE0Mzc2NzAzMDI5TDIxNi40MzEyNSwyNzMuNDI4ODcxODIwMzExNTRMMjQwLjQ3OTE2NjY2NjY2NjY2LDI3MS4xOTAwNDk2ODgxMTg0TDI2NC41MjcwODMzMzMzMzMzNCwyNzIuMjc3NTk5ODQ0MDQ5OEwyODguNTc1LDI4MS45NzcyNzE2MjY5NzIxNEwzMTIuNjIyOTE2NjY2NjY2NywyNzYuOTE5NjEzNDA1NTE4N0wzMzYuNjcwODMzMzMzMzMzMzUsMjc0LjA3MTk4MzQ2MzMyNzlMMzYwLjcxODc1LDI3MC40OTA2MjcwNzExNjI0TDM4NC43NjY2NjY2NjY2NjY2NSwyNjcuMTgwNzEwOTgxOTEzTDQwOC44MTQ1ODMzMzMzMzMzLDI2MS45MzQ3OTg2MTg0NDk2M0w0MzIuODYyNSwyNTkuNzI2Nzg3MDkzNzc0NTNMNDU2LjkxMDQxNjY2NjY2NjY2LDI1My4zOTAyNjQ5NjU1NTk1TDQ4MC45NTgzMzMzMzMzMzMzLDI0NC4xODg3Nzg3MDAwNDk0M0w1MDUuMDA2MjQ5OTk5OTk5OTcsMjM2LjY2MjI0MDY5NDAyNjlMNTI5LjA1NDE2NjY2NjY2NjcsMjMxLjY5NTEwNTc5MzQ0MTVMNTUzLjEwMjA4MzMzMzMzMzMsMjI1LjEwODY5ODg1NjcwMjNMNTc3LjE1LDIyMC4zMTc5MjI3MzkwOTY2TDYwMS4xOTc5MTY2NjY2NjY3LDIwOC40MzQ5MjAwMjcwOTQwMkw2MjUuMjQ1ODMzMzMzMzMzNCwxOTguNjQ2NjMwNDU0MTc4Mkw2NDkuMjkzNzUsMTkwLjI0NTA4NDkyOTgzOTA3TDY3My4zNDE2NjY2NjY2NjY3LDE5MS4zMjIxNTc2MTg3NDcyNEw2OTcuMzg5NTgzMzMzMzMzMywxODYuNDQ5Mzk3MTUzMTEwODhMNzIxLjQzNzUsMTkzLjYwMzEwMTM3MzAyNjgyTDc0NS40ODU0MTY2NjY2NjY4LDE3Ni41MzUyNTgwODAwOTc1Mkw3NjkuNTMzMzMzMzMzMzMzMywxNjMuOTYwMDEwNTA5MzU4MTRMNzkzLjU4MTI1MDAwMDAwMDEsMTUyLjE3Nzk3ODEzNTY3ODYxTDgxNy42MjkxNjY2NjY2NjY2LDE0Mi4yODI0ODA3MjY5ODU2OEw4NDEuNjc3MDgzMzMzMzMzNCwxMzUuNDEwNTc2NzgwMjgwOTZMODY1LjcyNSwxMzAuMjA4OTE4Njc5NjMzNzdMODg5Ljc3MjkxNjY2NjY2NjcsMTMxLjA5MDcyMDQ2NDE0OTIzTDkxMy44MjA4MzMzMzMzMzMzLDEyMC4xOTQxNTIzNTI3OTA3NUw5MzcuODY4NzUsMTEwLjA3NDA0NTgxMDI2Mzc4TDk2MS45MTY2NjY2NjY2NjY2LDEwMS45MDM2MTAyODk0NDY1M0w5ODUuOTY0NTgzMzMzMzMzNCw5Mi4yMDQwNDAwMzM4OTIyOEwxMDEwLjAxMjQ5OTk5OTk5OTksODUuMzk4MTg1OTg3NjYzNjJMMTAzNC4wNjA0MTY2NjY2NjY3LDc3Ljg1NTY0NjA4MzQ3Njk4TDEwNTguMTA4MzMzMzMzMzMzMyw2Ny44NzI3OTI4Nzk4NDE4MkwxMDgyLjE1NjI1LDYxLjAwOTExMDE5NjU1OTU2TDExMDYuMjA0MTY2NjY2NjY2Nyw1OS4wNjQ1MjE2MjE0MzU5MTVMMTEzMC4yNTIwODMzMzMzMzMzLDU5LjA2MDQwMzkwMzE5NDE4NUwxMTU0LjMsNTguNTcwMzQ2NDQ1OTQ2OTRMMTE3OC4zNDc5MTY2NjY2NjY2LDU1Ljk5MjkwNDY3MTQ2MzE4TDEyMDIuMzk1ODMzMzMzMzMzNSw1My40MTU5NjEyNDExMzk2NTVMMTIyNi40NDM3NSw0OS4zMzQzOTY0NzQzNjEzN0wxMjUwLjQ5MTY2NjY2NjY2NjgsNDguNjE5NDI1Nzk2MDM0ODc1TDEyNzQuNTM5NTgzMzMzMzMzMiw0Ny45MzAzNTA3MTE5MzkwN0wxMjk4LjU4NzUsNDMuNjkwNjI1OTc1NjE0Njk0IiBzdHlsZT0iZmlsbDogbm9uZTsiIGZpbGw9Im5vbmUiLz48L2c+PGc+PHBhdGggc3Ryb2tlPSJyZ2IoMjM4LCA1MSwgMTE5KSIgc3Ryb2tlLXdpZHRoPSIycHgiIGQ9Ik0xMjAuMjM5NTgzMzMzMzMzMzMsMjcyLjEzMTUwMTg3MzMzNDA2TDE0NC4yODc1LDI3Mi4xMzE1MDE4NzMzMzQ1TDE2OC4zMzU0MTY2NjY2NjY2NywyNzQuNzUwNTk5MjU0MzkwOUwxOTIuMzgzMzMzMzMzMzMzMzMsMjc1LjQ1OTYzNjczNzM4MDZMMjE2LjQzMTI1LDI4NS4xNDA0NTYyNDMxNTY1NkwyNDAuNDc5MTY2NjY2NjY2NjYsMjk1LjkyMTc0NDM2OTU5NzZMMjY0LjUyNzA4MzMzMzMzMzM0LDMwNC4xMzQ5ODY2NTYwMDQ3TDI4OC41NzUsMzE1LjI0NjY4OTk5ODY5NDJMMzEyLjYyMjkxNjY2NjY2NjcsMzExLjk2MDkwOTI1NTA4MThMMzM2LjY3MDgzMzMzMzMzMzM1LDMxNC4zNTUxMTk2NTI4Mzc3TDM2MC43MTg3NSwzMTUuMjk3ODA2MjIwMTI4MzRMMzg0Ljc2NjY2NjY2NjY2NjY1LDMyMi4zNDYwMjYyOTgzNzM3TDQwOC44MTQ1ODMzMzMzMzMzLDMxNy40NTU2MTcyNTAzNjkxTDQzMi44NjI1LDMxMS4zNjc4MTU0NzUxMDkzTDQ1Ni45MTA0MTY2NjY2NjY2NiwyOTguMTMzNjAwMjA1MjU3OUw0ODAuOTU4MzMzMzMzMzMzMywzMDYuNzg2NDg1NjA5ODk4OUw1MDUuMDA2MjQ5OTk5OTk5OTcsMzQwLjczODcwNDUzMjMwMzVMNTI5LjA1NDE2NjY2NjY2NjcsMzMwLjcxMTY2NjE4Nzg2MjdMNTUzLjEwMjA4MzMzMzMzMzMsMzIwLjI1OTM3MDk5NTIxMjRMNTc3LjE1LDI5Ny44NDIxMzMwMzE3MjA1NUw2MDEuMTk3OTE2NjY2NjY2NywzMjQuNjIwMzMxNTIzODc2NjRMNjI1LjI0NTgzMzMzMzMzMzQsMzI1Ljk0NzUxNzM3OTcxNTM1TDY0OS4yOTM3NSwzMTUuNTU5NDk4NjQ0NzYyM0w2NzMuMzQxNjY2NjY2NjY2NywzMDYuNDY1MTQzMzc3MDExMjZMNjk3LjM4OTU4MzMzMzMzMzMsMzAzLjkyNjQ2MTc3MDczNDVMNzIxLjQzNzUsMjc5LjA1MDkyMjM3NjAwNDFMNzQ1LjQ4NTQxNjY2NjY2NjgsMjY2LjY5OTMxNDQ4Mzk5Nzg1TDc2OS41MzMzMzMzMzMzMzMzLDI0Ni43MDc5ODM3MTk0ODQ0N0w3OTMuNTgxMjUwMDAwMDAwMSwyNDIuMjUyMzM5MjY4NDM5OTNMODE3LjYyOTE2NjY2NjY2NjYsMjMwLjk0MTgzNjk2OTg1NzI2TDg0MS42NzcwODMzMzMzMzM0LDIyNC4xNjYzOTYxNDI3NDExTDg2NS43MjUsMjIyLjMzMTY3MDY3OTIyOTcyTDg4OS43NzI5MTY2NjY2NjY3LDIwMy4yOTk5OTA5Mjg1Nzc3M0w5MTMuODIwODMzMzMzMzMzMywxODguODA0NDM4NTM0OTU3MDZMOTM3Ljg2ODc1LDE3My4zNDU4MTIzNTY1MzQyNUw5NjEuOTE2NjY2NjY2NjY2NiwxNTUuOTM0MTM0NTc5NTg0MzdMOTg1Ljk2NDU4MzMzMzMzMzQsMTQ4LjQxOTE1OTI4MTEwOTFMMTAxMC4wMTI0OTk5OTk5OTk5LDEzNy45MDMxOTgzMTk2MjUxTDEwMzQuMDYwNDE2NjY2NjY2NywxMjguNjkxMDM5OTcxMTg0MzVMMTA1OC4xMDgzMzMzMzMzMzMzLDEyMC44NjMzMTU4OTA3NzgwNEwxMDgyLjE1NjI1LDEyMi40MzgyMjA1NzYzNjY0TDExMDYuMjA0MTY2NjY2NjY2NywxMTIuMjMwMzU2ODI0NzQxMzZMMTEzMC4yNTIwODMzMzMzMzMzLDEwNi4xNjc3MDcxNjQzMjQyN0wxMTU0LjMsOTQuNDUyNTAwMDgxMjMxOTZMMTE3OC4zNDc5MTY2NjY2NjY2LDkxLjk4NjI1NTMyNTgxMjg2TDEyMDIuMzk1ODMzMzMzMzMzNSw4My41OTEwMjQzNTQyNDI5NkwxMjI2LjQ0Mzc1LDgwLjE2NDIwMDc2NzA0MUwxMjUwLjQ5MTY2NjY2NjY2NjgsNzAuODE5MzE0MTYzOTk0NDJMMTI3NC41Mzk1ODMzMzMzMzMyLDY3LjcyNDg0MDYxMTQ1NTY1TDEyOTguNTg3NSw2MS4zNzMyNDU1NzgwNTIwOSIgc3R5bGU9ImZpbGw6IG5vbmU7IiBmaWxsPSJub25lIi8+PC9nPjxnPjxwYXRoIHN0cm9rZT0icmdiKDE4NywgMTg3LCAxODcpIiBzdHJva2Utd2lkdGg9IjJweCIgZD0iTTEyMC4yMzk1ODMzMzMzMzMzMywyNzIuMTMxNTAxODczMzM0MDZMMTQ0LjI4NzUsMjcyLjEzMTUwMTg3MzMzNDVMMTY4LjMzNTQxNjY2NjY2NjY3LDI3MS40OTM2NTU0NTk2NjA5TDE5Mi4zODMzMzMzMzMzMzMzMywyODIuOTk1NDE4NDE0MDA5NDZMMjE2LjQzMTI1LDI4MS42NjU5NjYyODE1ODY4TDI0MC40NzkxNjY2NjY2NjY2NiwyODEuOTU0Njk5OTE2Mzk4NEwyNjQuNTI3MDgzMzMzMzMzMzQsMjgzLjA2NzM4NzIwOTU4MjJMMjg4LjU3NSwyODUuNjUwMzI5MzkxMTIwODZMMzEyLjYyMjkxNjY2NjY2NjcsMjkwLjgwODQwMjA3MDAzMkwzMzYuNjcwODMzMzMzMzMzMzUsMjk1LjEwNzEzNTY1OTU4Mjc1TDM2MC43MTg3NSwzMDAuMTk1NDQ5ODQ1Mzk3OUwzODQuNzY2NjY2NjY2NjY2NjUsMjk3LjU1NTExOTAzNDcxMDc0TDQwOC44MTQ1ODMzMzMzMzMzLDI5OS40MjU5NDcxMzU0OTg3NUw0MzIuODYyNSwyOTUuMzc4NTc0Njg1MDI4MDdMNDU2LjkxMDQxNjY2NjY2NjY2LDMwMC45MTM0NTcwMjA1MDM1TDQ4MC45NTgzMzMzMzMzMzMzLDI5MS42MTY1NTI1MjIwOTk2TDUwNS4wMDYyNDk5OTk5OTk5NywyOTcuODgwMzUzOTc5MjE0NjVMNTI5LjA1NDE2NjY2NjY2NjcsMjk1LjM1NjMyNzA0MDk4MThMNTUzLjEwMjA4MzMzMzMzMzMsMjg5LjQ4Njg4MDcxMjI0ODNMNTc3LjE1LDI4MC41MDMwOTA2ODg5NTE3TDYwMS4xOTc5MTY2NjY2NjY3LDI5Ni41MTY1MjY5ODQ1MDY2TDYyNS4yNDU4MzMzMzMzMzM0LDI4Ny43MzgwMTA2NDY1NTY3NUw2NDkuMjkzNzUsMjg1LjMwMDk5NzIyMTAwOTc3TDY3My4zNDE2NjY2NjY2NjY3LDI4OS44NzU2MTY5MjAyODk2NEw2OTcuMzg5NTgzMzMzMzMzMywyODcuMDUyNzM4NzU5MjMxOEw3MjEuNDM3NSwyNzQuMDIyODI2OTE0ODM5OUw3NDUuNDg1NDE2NjY2NjY2OCwyNTguODY2MTA0NDAwMjA5NTdMNzY5LjUzMzMzMzMzMzMzMzMsMjQ4LjM2ODAzNzIzMjQ4MDg0TDc5My41ODEyNTAwMDAwMDAxLDIzNi43NzQ2NzkyMTU2MDQ2NEw4MTcuNjI5MTY2NjY2NjY2NiwyMzMuMjAyNDU5NTUzMjAzNTdMODQxLjY3NzA4MzMzMzMzMzQsMjMxLjA5MTkxMjU3OTM4OTM3TDg2NS43MjUsMjIwLjMyODQyNDk2MjMxMDU4TDg4OS43NzI5MTY2NjY2NjY3LDIyMC43ODM1MzgxMTAzNjIwM0w5MTMuODIwODMzMzMzMzMzMywyMTYuNDQ2NDk0NDAxMDg4MjJMOTM3Ljg2ODc1LDIwOC44OTEwNzEyMTAwMzc5TDk2MS45MTY2NjY2NjY2NjY2LDIxMC4wNjMzOTkxMDQzMDU2M0w5ODUuOTY0NTgzMzMzMzMzNCwyMjAuNDIxNzI1NjAxMzkxNzNMMTAxMC4wMTI0OTk5OTk5OTk5LDIxOS44NTgzNjI0ODgwMDE1TDEwMzQuMDYwNDE2NjY2NjY2NywyMTAuNTYzMTU1Nzc0MTE1NEwxMDU4LjEwODMzMzMzMzMzMzMsMjAyLjM4NTAyMDQzMDc4NDY2TDEwODIuMTU2MjUsMTk3LjgxNzg3MjcwODcxMjFMMTEwNi4yMDQxNjY2NjY2NjY3LDE4MS41NjM3Mjg1MzMwOTMwN0wxMTMwLjI1MjA4MzMzMzMzMzMsMTY4LjIzOTY5Mzg2MDM1ODI0TDExNTQuMywxNTcuMDQ2NzcxODA3MTgxMTZMMTE3OC4zNDc5MTY2NjY2NjY2LDE0Ni42NjQ0MTY0MDQwNDk2TDEyMDIuMzk1ODMzMzMzMzMzNSwxMzcuMDkzNjU0NDEwOTc2NDZMMTIyNi40NDM3NSwxNDIuNTg0MTMzMTY1NDE1MTJMMTI1MC40OTE2NjY2NjY2NjY4LDE0Mi42NjUxNzA5MzYyMzI1TDEyNzQuNTM5NTgzMzMzMzMzMiwxNDMuMTQyMDcwNTM4NTk3NTVMMTI5OC41ODc1LDE0Ni4zOTc5ODYwODg5MjQ2IiBzdHlsZT0iZmlsbDogbm9uZTsiIGZpbGw9Im5vbmUiLz48L2c+PGc+PHBhdGggc3Ryb2tlPSJyZ2IoMjU1LCAxMTIsIDY3KSIgc3Ryb2tlLXdpZHRoPSIycHgiIGQ9Ik0xMjAuMjM5NTgzMzMzMzMzMzMsMjcyLjEzMTUwMTg3MzMzNDA2TDE0NC4yODc1LDI3Mi4xMzE1MDE4NzMzMzQ1TDE2OC4zMzU0MTY2NjY2NjY2NywyNzUuMDg5MjU1NDUzNTI4NEwxOTIuMzgzMzMzMzMzMzMzMzMsMjczLjM1NjE4NjA4NTE4MTdMMjE2LjQzMTI1LDI3Mi4wOTAyMjIxNTc5MjMzTDI0MC40NzkxNjY2NjY2NjY2NiwyNzMuNjYzNzU2NzI0NjYxMkwyNjQuNTI3MDgzMzMzMzMzMzQsMjczLjkyNTkyNjU4NTMyNDJMMjg4LjU3NSwyNjkuMTM3ODE4OTQ1NzMyNUwzMTIuNjIyOTE2NjY2NjY2NywyNjYuNDY3MzUxNzQ3NDcyNUwzMzYuNjcwODMzMzMzMzMzMzUsMjYzLjc5MzEwMDYwODM3NjhMMzYwLjcxODc1LDI2OC4wNzI2NzA1ODg1NTI4TDM4NC43NjY2NjY2NjY2NjY2NSwyNjkuMDA0NTM4NTkwOTAyMTRMNDA4LjgxNDU4MzMzMzMzMzMsMjYyLjgzMzUyMDcwNTcwOTlMNDMyLjg2MjUsMjYzLjg2MTgyNjg1Mjk0OTJMNDU2LjkxMDQxNjY2NjY2NjY2LDI2Mi41ODMzMzYyMDU1NDg3M0w0ODAuOTU4MzMzMzMzMzMzMywyNTUuNzY3MTE4ODgwNTE5MUw1MDUuMDA2MjQ5OTk5OTk5OTcsMjUyLjY0Nzk2OTEwMTA5OTQ4TDUyOS4wNTQxNjY2NjY2NjY3LDI0Ny4zNzMzNDg1NjAxMTEyMkw1NTMuMTAyMDgzMzMzMzMzMywyNDEuMDU5OTUxNjk4NTQxMDZMNTc3LjE1LDIzNC4yNjY3MzAzOTc1MTE0Mkw2MDEuMTk3OTE2NjY2NjY2NywyMjkuMjY0NTM0MjU0NDYzOTdMNjI1LjI0NTgzMzMzMzMzMzQsMjI2Ljg2MjYyMjE2NjYzMjA2TDY0OS4yOTM3NSwyMjMuNjExNTYxNTUzMjk0NEw2NzMuMzQxNjY2NjY2NjY2NywyMTcuODAzMDE3OTYxNTE3NUw2OTcuMzg5NTgzMzMzMzMzMywyMTcuMDMxMzM5MTg4OTk5NEw3MjEuNDM3NSwyMTAuMzY5NDg4ODU2MTc3MDdMNzQ1LjQ4NTQxNjY2NjY2NjgsMjAyLjgzMjI1NDgwNzAxMDc0TDc2OS41MzMzMzMzMzMzMzMzLDE5NS4wNzIxNzUzOTU5OTk3NUw3OTMuNTgxMjUwMDAwMDAwMSwxODguNzY4MTE5MDk2OTA3MjRMODE3LjYyOTE2NjY2NjY2NjYsMTkyLjkxNDM5NjU0NTM4ODE0TDg0MS42NzcwODMzMzMzMzM0LDE4NS4xMzE0ODk3NzM4NjIyM0w4NjUuNzI1LDE3OC45MDE2MzAxOTYwNTEyM0w4ODkuNzcyOTE2NjY2NjY2NywxNzIuMDcxMTczNzI1NDI4ODVMOTEzLjgyMDgzMzMzMzMzMzMsMTgzLjQ3NDQ3Mjc1NTQwNTI2TDkzNy44Njg3NSwxNzcuODIxNzMzMjQ0NzEwNDZMOTYxLjkxNjY2NjY2NjY2NjYsMTY5LjE0NjYzMzk4NDE1OTQ1TDk4NS45NjQ1ODMzMzMzMzM0LDE2MC4wOTA2NTk3NDU1NjM1M0wxMDEwLjAxMjQ5OTk5OTk5OTksMTU0LjgyOTgxNzg1ODY2NTdMMTAzNC4wNjA0MTY2NjY2NjY3LDE0Ny4wMTAxNDMyNTI5NzkyNUwxMDU4LjEwODMzMzMzMzMzMzMsMTQzLjQwNDkyNzI5NDMzMzA4TDEwODIuMTU2MjUsMTM1LjY3MDkzNDI3MjgyOTU4TDExMDYuMjA0MTY2NjY2NjY2NywxMzAuNzgxMDkwNDcwODM3MUwxMTMwLjI1MjA4MzMzMzMzMzMsMTI1LjA2NTQyNzA1NTY4NzY4TDExNTQuMywxMjAuNzgwMDkzNDYyNDQzNEwxMTc4LjM0NzkxNjY2NjY2NjYsMTEzLjgzNjI3NTQ5NTI2MzAxTDEyMDIuMzk1ODMzMzMzMzMzNSwxMDkuNTE1NTI4Nzg5MTMzMjFMMTIyNi40NDM3NSwxMDIuMjY5OTI0MTQ4ODY3MTJMMTI1MC40OTE2NjY2NjY2NjY4LDk3Ljc1MzM3Mjc4NjkzNzQ2TDEyNzQuNTM5NTgzMzMzMzMzMiw5My4xNDIzNTQ5MTExNUwxMjk4LjU4NzUsODkuMzQyMjUwMTEwMjYyMTEiIHN0eWxlPSJmaWxsOiBub25lOyIgZmlsbD0ibm9uZSIvPjwvZz48L2c+PC9nPjwvZz48ZyBvcGFjaXR5PSIwLjIiPjxnPjxnPjxnPjxwYXRoIHN0cm9rZT0icmdiKDAsIDExOSwgMTg3KSIgc3Ryb2tlLXdpZHRoPSIycHgiIGQ9Ik0xMjAuMjM5NTgzMzMzMzMzMzMsMjcyLjEzMTUwMTg3MzMzNDNMMTQ0LjI4NzUsMjcyLjEzMTUwMTg3MzMzNDNMMTY4LjMzNTQxNjY2NjY2NjY3LDI3OS4xMzQzMjQxMDAyODI0N0wxOTIuMzgzMzMzMzMzMzMzMzMsMjcxLjg1MjIzNzg4Njg1MjdMMjE2LjQzMTI1LDI3Mi4xMzE1MDE4NzMzMzQzTDI0MC40NzkxNjY2NjY2NjY2NiwyNjQuMjQyOTQ5NjU3OTcwMDNMMjY0LjUyNzA4MzMzMzMzMzM0LDI3Ni4wNDgxODg2NDY2MzQ0NkwyODguNTc1LDMxOC41OTAxOTMyMzE5MDA1N0wzMTIuNjIyOTE2NjY2NjY2NywyNTYuNTE0MDY2MDMzODkzMkwzMzYuNjcwODMzMzMzMzMzMzUsMjYxLjk1NzUyOTA5NDQ4NDEzTDM2MC43MTg3NSwyNTQuNTkwMDUzMjY2OTQ5MTZMMzg0Ljc2NjY2NjY2NjY2NjY1LDI1MS45NjYxOTUyMTI0NzAxOEw0MDguODE0NTgzMzMzMzMzMywyMzcuMTI2MDA0NjAzMTc0TDQzMi44NjI1LDI0OS4wMzc0ODEyNTUwMDE1TDQ1Ni45MTA0MTY2NjY2NjY2NiwyMjIuMTE0NjYwMjQ5ODE2MDRMNDgwLjk1ODMzMzMzMzMzMzMsMTk4LjAzNjY2MTY1MTM5OTM4TDUwNS4wMDYyNDk5OTk5OTk5NywxOTguNDAyNjg4NDc2Nzc0NDFMNTI5LjA1NDE2NjY2NjY2NjcsMjA2LjE2MjE1NzU2MjA0MzkyTDU1My4xMDIwODMzMzMzMzMzLDE5MC45MzQzNDMwNDY2MTIxOEw1NzcuMTUsMTk1LjI2NTExOTUxMjg3NTg2TDYwMS4xOTc5MTY2NjY2NjY3LDE0NS44ODQ4Mjk5OTgwMTYzM0w2MjUuMjQ1ODMzMzMzMzMzNCwxNDYuODM3ODQ4MDAxMDU2MjJMNjQ5LjI5Mzc1LDE0NS41Njk2MTI0ODk4MDYyN0w2NzMuMzQxNjY2NjY2NjY2NywxOTcuMDcxOTA4ODE4MzUwOUw2OTcuMzg5NTgzMzMzMzMzMywxNjAuMzUxNTAzNDY0OTEwN0w3MjEuNDM3NSwyMzIuMDIzNjAwNjQ0NTM1NUw3NDUuNDg1NDE2NjY2NjY2OCw4NC42NTQ3MzQxMDgxODMwNUw3NjkuNTMzMzMzMzMzMzMzMyw5Ni4xMzEwMjMzNDA3NTUwMUw3OTMuNTgxMjUwMDAwMDAwMSw4OC41MjE5ODQ3ODkxMDY1MUw4MTcuNjI5MTY2NjY2NjY2Niw4OC43NDQxOTc1Mjc1Njc1MUw4NDEuNjc3MDgzMzMzMzMzNCw5OC4xODcxMTUzNjQ2MDQ1TDg2NS43MjUsMTAyLjAwNDY4MDI3NTkxN0w4ODkuNzcyOTE2NjY2NjY2NywxMzUuODc2MDE4NzA5NjA2NTdMOTEzLjgyMDgzMzMzMzMzMzMsNjEuMDE5NDEzMjQ2MDQ4NzdMOTM3Ljg2ODc1LDU1LjA4Mjk2MjQ4NjQ3ODk1TDk2MS45MTY2NjY2NjY2NjY2LDU3LjQ4NDIzMzI4NjY0NTU3Nkw5ODUuOTY0NTgzMzMzMzMzNCwzOS40NDg3OTgyNzIzNDQ3M0wxMDEwLjAxMjQ5OTk5OTk5OTksNDguMzY4MjY3Nzg3ODI3MzM1TDEwMzQuMDYwNDE2NjY2NjY2NywzNi44MDQ5NjYwMzkxMjc2OUwxMDU4LjEwODMzMzMzMzMzMzMsMTMuNTI2NTU4NzgzMzE5MTZMMTA4Mi4xNTYyNSwyMy42MzUzNjU4MDQwMzYzODNMMTEwNi4yMDQxNjY2NjY2NjY3LDQ4LjQ3NDAwNjA5NjUyMTkyTDExMzAuMjUyMDgzMzMzMzMzMyw1OS4wMzc5NzQ3MTUyMzI3OUwxMTU0LjMsNTUuOTAwNjU1NDI4NTY4NDNMMTE3OC4zNDc5MTY2NjY2NjY2LDQxLjk1MDE4OTY0MzQzNTkyTDEyMDIuMzk1ODMzMzMzMzMzNSwzOS4zNzQ2NDQxMzM3Nzk2N0wxMjI2LjQ0Mzc1LDI3LjA5Mjg5NjE0MzU5NTI4M0wxMjUwLjQ5MTY2NjY2NjY2NjgsNDQuNzIzMTA1MDA2NzQ3NjlMMTI3NC41Mzk1ODMzMzMzMzMyLDQ0LjE3NDkzODYzOTAwNDk1TDEyOTguNTg3NSwyMC41ODMzMTEyOTI4NjAxNzQiIHN0eWxlPSJmaWxsOiBub25lOyIgZmlsbD0ibm9uZSIvPjwvZz48Zz48cGF0aCBzdHJva2U9InJnYigyMzgsIDUxLCAxMTkpIiBzdHJva2Utd2lkdGg9IjJweCIgZD0iTTEyMC4yMzk1ODMzMzMzMzMzMywyNzIuMTMxNTAxODczMzM0M0wxNDQuMjg3NSwyNzIuMTMxNTAxODczMzM0M0wxNjguMzM1NDE2NjY2NjY2NjcsMjc4LjgzMzgzNzU0ODg5MTdMMTkyLjM4MzMzMzMzMzMzMzMzLDI3Ni45OTI4NDI0NjIzMjc3NkwyMTYuNDMxMjUsMzExLjAwOTYxNzg4NDk1Mzg1TDI0MC40NzkxNjY2NjY2NjY2NiwzMjkuMzc2MjQ5NzUwNDU1MjZMMjY0LjUyNzA4MzMzMzMzMzM0LDMzMi42MTA2OTM0ODEyMzM0TDI4OC41NzUsMzU3LjE4OTU0NDYxMTUwN0wzMTIuNjIyOTE2NjY2NjY2NywyOTguNzA0MTUwNTU3NTE4TDMzNi42NzA4MzMzMzMzMzMzNSwzMjQuNTQwNjI1OTE2NTg3MDNMMzYwLjcxODc1LDMxOS40ODMxNjM4NjAxMDkxM0wzODQuNzY2NjY2NjY2NjY2NjUsMzU0Ljc0NDIwNTc3OTQ5OTVMNDA4LjgxNDU4MzMzMzMzMzMsMjk0LjMyODA1NzY3MzI0MjM3TDQzMi44NjI1LDI4MS44OTU4NzkxNDk0MzY5NUw0NTYuOTEwNDE2NjY2NjY2NjYsMjMyLjgxMjU4MDcwNDY4OTAzTDQ4MC45NTgzMzMzMzMzMzMzLDM1MC4xODY5NzIwNjE3OTNMNTA1LjAwNjI0OTk5OTk5OTk3LDUxMy4zMjc1NzQ5NjgzMzgxTDUyOS4wNTQxNjY2NjY2NjY3LDI3OS4xNjg5MDQzOTcyMjI3TDU1My4xMDIwODMzMzMzMzMzLDI2Ni4wMjYzOTQxNDIwNDQ5TDU3Ny4xNSwxODAuNjEzODA5NzMxMjcxNUw2MDEuMTk3OTE2NjY2NjY2Nyw0NjUuNTc2MTc5NzI5NTY3NzRMNjI1LjI0NTgzMzMzMzMzMzQsMzMyLjk3MjIyNjExNjM5MjRMNjQ5LjI5Mzc1LDI2MC4zMjA4OTQ4MjQxMzQwM0w2NzMuMzQxNjY2NjY2NjY2NywyNTcuOTE2NjI3ODk3MTU2Nkw2OTcuMzg5NTgzMzMzMzMzMywyOTAuMzI5NjAxNjA1NzMzM0w3MjEuNDM3NSwxNDUuNDUxNTE1MTU4MDE3NDZMNzQ1LjQ4NTQxNjY2NjY2NjgsMjAwLjIwNzQ4MDM2NDM3NTY0TDc2OS41MzMzMzMzMzMzMzMzLDEzOC44Nzc3NjMyNTgwODYyOEw3OTMuNTgxMjUwMDAwMDAwMSwyMTguMTc5MzcyNTIyNTY2MDRMODE3LjYyOTE2NjY2NjY2NjYsMTY5Ljc0Nzg1NjQ5Nzc2NDZMODQxLjY3NzA4MzMzMzMzMzQsMTg3LjQ2NTQ1MjM5Mjg5Nkw4NjUuNzI1LDIxMi4zODM0OTAwNDU4NjU0TDg4OS43NzI5MTY2NjY2NjY3LDEwMC4wMjAyNDU2MTgyOTAyOUw5MTMuODIwODMzMzMzMzMzMywxMTAuMDg1MTA5NDQ1NzgzNzZMOTM3Ljg2ODc1LDg5LjM0NjA0NDUwMDY2ODc3TDk2MS45MTY2NjY2NjY2NjY2LDYxLjI3MzgzNDM0NzcyNDg2TDk4NS45NjQ1ODMzMzMzMzM0LDEwNy41NDU3NjcxMzUwOTAyN0wxMDEwLjAxMjQ5OTk5OTk5OTksODAuNjg2OTg4MzQwNDgzNzFMMTAzNC4wNjA0MTY2NjY2NjY3LDc4LjU1MzM3MTUzNTQwNzExTDEwNTguMTA4MzMzMzMzMzMzMyw3OC4yNDk1MTQzNDEzNTQzMUwxMDgyLjE1NjI1LDEzMS4wMTM4MDQyNTAyOTMyOEwxMTA2LjIwNDE2NjY2NjY2NjcsNTYuNjM2ODI4NzUzNjgzMjNMMTEzMC4yNTIwODMzMzMzMzMzLDczLjE0NDQ4ODc3MTc1NjQxTDExNTQuMywzMC42MzE0NDY3NDU2NjA0N0wxMTc4LjM0NzkxNjY2NjY2NjYsNzguNTQ5Mzc2Njk5NjU5NDlMMTIwMi4zOTU4MzMzMzMzMzM1LDM3Ljg0Njg2OTEzNzU1MTk1TDEyMjYuNDQzNzUsNjEuNDkwNTU0MTg3MDMyODRMMTI1MC40OTE2NjY2NjY2NjY4LDE5Ljg5MzIwMzQxNzQ2MDAzTDEyNzQuNTM5NTgzMzMzMzMzMiw1MC44NjAxNzE0MjQwMTc5NUwxMjk4LjU4NzUsMjYuNzU1ODMxODc3MzkwNDUiIHN0eWxlPSJmaWxsOiBub25lOyIgZmlsbD0ibm9uZSIvPjwvZz48Zz48cGF0aCBzdHJva2U9InJnYigxODcsIDE4NywgMTg3KSIgc3Ryb2tlLXdpZHRoPSIycHgiIGQ9Ik0xMjAuMjM5NTgzMzMzMzMzMzMsMjcyLjEzMTUwMTg3MzMzNDNMMTQ0LjI4NzUsMjcyLjEzMTUwMTg3MzMzNDNMMTY4LjMzNTQxNjY2NjY2NjY3LDI3MC40OTkyMzY5NTQ1ODMwN0wxOTIuMzgzMzMzMzMzMzMzMzMsMzA3Ljg2NjU1NjAyMTkwMjM0TDIxNi40MzEyNSwyNzguMTEzMzkzODg5NTMzMkwyNDAuNDc5MTY2NjY2NjY2NjYsMjgyLjg1MDY0NDg5MzExNjQ1TDI2NC41MjcwODMzMzMzMzMzNCwyODYuOTI1MTI3Njc4NDQ3M0wyODguNTc1LDI5NS40MDAwNDY4NzgzOTA4N0wzMTIuNjIyOTE2NjY2NjY2NywzMTEuNjE5MDgwMDEzNjk5MDNMMzM2LjY3MDgzMzMzMzMzMzM1LDMxMy4zOTQ5MDkzNDIxMzAwNkwzNjAuNzE4NzUsMzIyLjc4NjY0MzM0NjE1MDc1TDM4NC43NjY2NjY2NjY2NjY2NSwyODUuNDE4NDUwNDA4NTExN0w0MDguODE0NTgzMzMzMzMzMywzMDguMjczNDA1MDc1MDczMjRMNDMyLjg2MjUsMjc1Ljc4NDY1NDMyNTkwOTFMNDU2LjkxMDQxNjY2NjY2NjY2LDMyOC4yMzIzNTM1MDE4NDk3M0w0ODAuOTU4MzMzMzMzMzMzMywyNDQuOTg1ODQzOTM2NjAyM0w1MDUuMDA2MjQ5OTk5OTk5OTcsMzI5LjcyMTA1NDAxMDkyMTFMNTI5LjA1NDE2NjY2NjY2NjcsMjgyLjM4MTg3NTg4NTg1NzVMNTUzLjEwMjA4MzMzMzMzMzMsMjU5LjAzMjU2MDI5NTUyODg3TDU3Ny4xNSwyMzMuNTIzNDExNzkwNTI5OUw2MDEuMTk3OTE2NjY2NjY2NywzODAuODA4NTExNjE0Nzk5NTZMNjI1LjI0NTgzMzMzMzMzMzQsMjQxLjI3Mzg5MjQ5NTM2NzI4TDY0OS4yOTM3NSwyNzIuMzQyMTA0NjIwNDAzNzVMNjczLjM0MTY2NjY2NjY2NjcsMzE0LjI5NjM2ODk5NjMwMjNMNjk3LjM4OTU4MzMzMzMzMzMsMjcxLjkzMzc1NzUwMzgyNzQ1TDcyMS40Mzc1LDIwNC4wNDI4OTcxOTc5MzUzTDc0NS40ODU0MTY2NjY2NjY4LDE3Ny4yNzM2Mjc2OTE3OTg3TDc2OS41MzMzMzMzMzMzMzMzLDE5MS43NDMwNDc2MDgyNjk1Nkw3OTMuNTgxMjUwMDAwMDAwMSwxNzQuMTM4MDU2MTQ1Nzc0TDgxNy42MjkxNjY2NjY2NjY2LDIxMy44NzU0MzYzNTg5ODE2Nkw4NDEuNjc3MDgzMzMzMzMzNCwyMTkuNjU5NTg0MDA1NjczNzRMODY1LjcyNSwxNjEuOTY3MDQwMDA4OTY4NzVMODg5Ljc3MjkxNjY2NjY2NjcsMjIzLjI1MzMxMzI3NjUwMjg0TDkxMy44MjA4MzMzMzMzMzMzLDE5Mi44OTM4MDk5ODA4MTYzMUw5MzcuODY4NzUsMTY3LjgzNjA3NzkxNTI5NzZMOTYxLjkxNjY2NjY2NjY2NjYsMjE2LjQzNjg3NTEwNDkwNDE3TDk4NS45NjQ1ODMzMzMzMzM0LDI3Ni43NTk4OTM2MDI3OTUxTDEwMTAuMDEyNDk5OTk5OTk5OSwyMTYuNzkzMTY0NTE4MTQ0NEwxMDM0LjA2MDQxNjY2NjY2NjcsMTU5Ljk3MzQ5MjEzMjI5Mjg1TDEwNTguMTA4MzMzMzMzMzMzMywxNTcuODYzNTk0NjY0NDY3NjZMMTA4Mi4xNTYyNSwxNzIuOTQ5MDkzMTU2MzkwN0wxMTA2LjIwNDE2NjY2NjY2NjcsOTMuMDQxMjY3NTY3MjEwN0wxMTMwLjI1MjA4MzMzMzMzMzMsOTUuNjYzNzUyMzk2OTAxMzdMMTE1NC4zLDk2LjA3MDk3NTk2NTkyMzY1TDExNzguMzQ3OTE2NjY2NjY2Niw5MC4wOTgwNzIzMzAxNTY5MkwxMjAyLjM5NTgzMzMzMzMzMzUsODQuOTQ0MjM0ODYxMjY3ODlMMTIyNi40NDM3NSwxNzIuNTAzMTY5NjE2MDYzNDJMMTI1MC40OTE2NjY2NjY2NjY4LDE0My4xMDY3OTYyNTE0MDI5NUwxMjc0LjUzOTU4MzMzMzMzMzIsMTQ1Ljc0MTE0MDc0OTcxOTM2TDEyOTguNTg3NSwxNjQuMTQzMzUxNjIxMDk3OTYiIHN0eWxlPSJmaWxsOiBub25lOyIgZmlsbD0ibm9uZSIvPjwvZz48Zz48cGF0aCBzdHJva2U9InJnYigyNTUsIDExMiwgNjcpIiBzdHJva2Utd2lkdGg9IjJweCIgZD0iTTEyMC4yMzk1ODMzMzMzMzMzMywyNzIuMTMxNTAxODczMzM0M0wxNDQuMjg3NSwyNzIuMTMxNTAxODczMzM0M0wxNjguMzM1NDE2NjY2NjY2NjcsMjc5LjcwMDQ2NzIyODg4OTQ3TDE5Mi4zODMzMzMzMzMzMzMzMywyNjkuNjA4NjM4MjYwMDk5NkwyMTYuNDMxMjUsMjY4LjcwNzMwMzQ0NDU0NDVMMjQwLjQ3OTE2NjY2NjY2NjY2LDI3OC41NDY0NTkwNTIyOTc4TDI2NC41MjcwODMzMzMzMzMzNCwyNzQuODM0ODgyMTI2OTE0MkwyODguNTc1LDI1MS4wNjQzNjEwNDI0NDY1NkwzMTIuNjIyOTE2NjY2NjY2NywyNTUuNjkzMTI3Mjg3NzU4NzNMMzM2LjY3MDgzMzMzMzMzMzM1LDI1Mi40MTYyMzg0MjcxNjIxN0wzNjAuNzE4NzUsMjg3LjA3MzE4NjI3ODM0MzJMMzg0Ljc2NjY2NjY2NjY2NjY1LDI3My4yODgwMDY4MjIyNjgyTDQwOC44MTQ1ODMzMzMzMzMzLDIzMy42NDk3NDg0NzEwNDgxNkw0MzIuODYyNSwyNjguODQwMDA2ODk0NTM1NUw0NTYuOTEwNDE2NjY2NjY2NjYsMjU2LjI3MzAwMjY2NDI0ODE3TDQ4MC45NTgzMzMzMzMzMzMzLDIyMS41Nzg4NTI5MDUxNjc0OEw1MDUuMDA2MjQ5OTk5OTk5OTcsMjM2Ljc5MjQzNTgxODI0ODMyTDUyOS4wNTQxNjY2NjY2NjY3LDIyMC4yNTk4MDgwNzY3NTI1Nkw1NTMuMTAyMDgzMzMzMzMzMywyMDguMzAyMTQxMTM2NTkzM0w1NzcuMTUsMTk4Ljc0MjM3NDM1MzkzODYzTDYwMS4xOTc5MTY2NjY2NjY3LDIwMi45MzM4MzA5MjM1MDQzTDYyNS4yNDU4MzMzMzMzMzM0LDIxNC4xNDk0NTcxMjM1NDQ1TDY0OS4yOTM3NSwyMDYuMzIzOTQ4NDA5ODIyMjRMNjczLjM0MTY2NjY2NjY2NjcsMTg2Ljc5NTE5Mzg1NzYxNjgyTDY5Ny4zODk1ODMzMzMzMzMzLDIxMi44OTgzMjQ1MDI4MzlMNzIxLjQzNzUsMTc0LjU5MDU5NjEzMjgwODIzTDc0NS40ODU0MTY2NjY2NjY4LDE2Mi4yNTc0MTQ2MzIzNzMzNUw3NjkuNTMzMzMzMzMzMzMzMywxNTMuMjE1NDc4NDMzNTAzTDc5My41ODEyNTAwMDAwMDAxLDE1NC43MDg1NDgyOTQxNzMzNEw4MTcuNjI5MTY2NjY2NjY2NiwyMTUuMzQ3MjgzNjU0NzQyNzdMODQxLjY3NzA4MzMzMzMzMzQsMTQyLjk3MzM0Mzc2OTcwOTIzTDg2NS43MjUsMTQ1LjEyMjMxNTcyNDY5MDc0TDg4OS43NzI5MTY2NjY2NjY3LDEzNS4wMDQxNDU4MDc2OTAwN0w5MTMuODIwODMzMzMzMzMzMywyNDUuNDAxMDU3MTc3MTE5OEw5MzcuODY4NzUsMTQ3LjEwNTYyNjgzNDc2MzM3TDk2MS45MTY2NjY2NjY2NjY2LDEyMS45ODM2MDI4ODE0MzE1NUw5ODUuOTY0NTgzMzMzMzMzNCwxMTAuODM1ODg4ODg5MTAwNzdMMTAxMC4wMTI0OTk5OTk5OTk5LDEyNi4yMDYxNDQyNjY2NTgzM0wxMDM0LjA2MDQxNjY2NjY2NjcsMTA0LjQ1MTE0MjY1NTQ3ODUyTDEwNTguMTA4MzMzMzMzMzMzMywxMjMuNzc4MjgyODQxMDQ2NjNMMTA4Mi4xNTYyNSw5My41NTgyMjQyODA2NzUxOEwxMTA2LjIwNDE2NjY2NjY2NjcsMTA0LjE1MDI4MTU4ODIzNjQ1TDExMzAuMjUyMDgzMzMzMzMzMyw5My45MzIyNDA3Nzc1NDU0N0wxMTU0LjMsOTcuNDM0ODM3ODU3ODgyMTRMMTE3OC4zNDc5MTY2NjY2NjY2LDc2LjAwNDE2Njk3Mzk2MTY3TDEyMDIuMzk1ODMzMzMzMzMzNSw4NS45NzI1MzA1NTA0MjY4MkwxMjI2LjQ0Mzc1LDYyLjc4Njc1MzU0ODUxNjEyTDEyNTAuNDkxNjY2NjY2NjY2OCw3My4xMzk4Njk3NDI5MjMyMkwxMjc0LjUzOTU4MzMzMzMzMzIsNjguMDEyNjIyODk5NDc5MjVMMTI5OC41ODc1LDY4LjYzMDk0ODU3MDAzOTUiIHN0eWxlPSJmaWxsOiBub25lOyIgZmlsbD0ibm9uZSIvPjwvZz48L2c+PC9nPjwvZz48L2c+PC9nPjxnIHRyYW5zZm9ybT0idHJhbnNsYXRlKDUzLCAzNzcpIiBjbGlwLXBhdGg9InVybCgjY2xpcF8xKSI+PGNsaXBQYXRoIGlkPSJjbGlwXzEiPjxyZWN0IHdpZHRoPSIxNDQyIiBoZWlnaHQ9IjIzIi8+PC9jbGlwUGF0aD48Zz48Zz48bGluZSB4MT0iMCIgeTE9IjAiIHgyPSIwIiB5Mj0iNSIgc3R5bGU9InZpc2liaWxpdHk6IGluaGVyaXQ7IiBmaWxsPSJyZ2IoMCwgMCwgMCkiIHN0cm9rZT0icmdiKDIwNCwgMjA0LCAyMDQpIiBzdHJva2Utd2lkdGg9IjFweCIvPjxsaW5lIHgxPSIxMjAuMjM5NTgzMzMzMzMzMzMiIHkxPSIwIiB4Mj0iMTIwLjIzOTU4MzMzMzMzMzMzIiB5Mj0iNSIgc3R5bGU9InZpc2liaWxpdHk6IGluaGVyaXQ7IiBmaWxsPSJyZ2IoMCwgMCwgMCkiIHN0cm9rZT0icmdiKDIwNCwgMjA0LCAyMDQpIiBzdHJva2Utd2lkdGg9IjFweCIvPjxsaW5lIHgxPSIyNDAuNDc5MTY2NjY2NjY2NjYiIHkxPSIwIiB4Mj0iMjQwLjQ3OTE2NjY2NjY2NjY2IiB5Mj0iNSIgc3R5bGU9InZpc2liaWxpdHk6IGluaGVyaXQ7IiBmaWxsPSJyZ2IoMCwgMCwgMCkiIHN0cm9rZT0icmdiKDIwNCwgMjA0LCAyMDQpIiBzdHJva2Utd2lkdGg9IjFweCIvPjxsaW5lIHgxPSIzNjAuNzE4NzUiIHkxPSIwIiB4Mj0iMzYwLjcxODc1IiB5Mj0iNSIgc3R5bGU9InZpc2liaWxpdHk6IGluaGVyaXQ7IiBmaWxsPSJyZ2IoMCwgMCwgMCkiIHN0cm9rZT0icmdiKDIwNCwgMjA0LCAyMDQpIiBzdHJva2Utd2lkdGg9IjFweCIvPjxsaW5lIHgxPSI0ODAuOTU4MzMzMzMzMzMzMyIgeTE9IjAiIHgyPSI0ODAuOTU4MzMzMzMzMzMzMyIgeTI9IjUiIHN0eWxlPSJ2aXNpYmlsaXR5OiBpbmhlcml0OyIgZmlsbD0icmdiKDAsIDAsIDApIiBzdHJva2U9InJnYigyMDQsIDIwNCwgMjA0KSIgc3Ryb2tlLXdpZHRoPSIxcHgiLz48bGluZSB4MT0iNjAxLjE5NzkxNjY2NjY2NjciIHkxPSIwIiB4Mj0iNjAxLjE5NzkxNjY2NjY2NjciIHkyPSI1IiBzdHlsZT0idmlzaWJpbGl0eTogaW5oZXJpdDsiIGZpbGw9InJnYigwLCAwLCAwKSIgc3Ryb2tlPSJyZ2IoMjA0LCAyMDQsIDIwNCkiIHN0cm9rZS13aWR0aD0iMXB4Ii8+PGxpbmUgeDE9IjcyMS40Mzc1IiB5MT0iMCIgeDI9IjcyMS40Mzc1IiB5Mj0iNSIgc3R5bGU9InZpc2liaWxpdHk6IGluaGVyaXQ7IiBmaWxsPSJyZ2IoMCwgMCwgMCkiIHN0cm9rZT0icmdiKDIwNCwgMjA0LCAyMDQpIiBzdHJva2Utd2lkdGg9IjFweCIvPjxsaW5lIHgxPSI4NDEuNjc3MDgzMzMzMzMzNCIgeTE9IjAiIHgyPSI4NDEuNjc3MDgzMzMzMzMzNCIgeTI9IjUiIHN0eWxlPSJ2aXNpYmlsaXR5OiBpbmhlcml0OyIgZmlsbD0icmdiKDAsIDAsIDApIiBzdHJva2U9InJnYigyMDQsIDIwNCwgMjA0KSIgc3Ryb2tlLXdpZHRoPSIxcHgiLz48bGluZSB4MT0iOTYxLjkxNjY2NjY2NjY2NjYiIHkxPSIwIiB4Mj0iOTYxLjkxNjY2NjY2NjY2NjYiIHkyPSI1IiBzdHlsZT0idmlzaWJpbGl0eTogaW5oZXJpdDsiIGZpbGw9InJnYigwLCAwLCAwKSIgc3Ryb2tlPSJyZ2IoMjA0LCAyMDQsIDIwNCkiIHN0cm9rZS13aWR0aD0iMXB4Ii8+PGxpbmUgeDE9IjEwODIuMTU2MjUiIHkxPSIwIiB4Mj0iMTA4Mi4xNTYyNSIgeTI9IjUiIHN0eWxlPSJ2aXNpYmlsaXR5OiBpbmhlcml0OyIgZmlsbD0icmdiKDAsIDAsIDApIiBzdHJva2U9InJnYigyMDQsIDIwNCwgMjA0KSIgc3Ryb2tlLXdpZHRoPSIxcHgiLz48bGluZSB4MT0iMTIwMi4zOTU4MzMzMzMzMzM1IiB5MT0iMCIgeDI9IjEyMDIuMzk1ODMzMzMzMzMzNSIgeTI9IjUiIHN0eWxlPSJ2aXNpYmlsaXR5OiBpbmhlcml0OyIgZmlsbD0icmdiKDAsIDAsIDApIiBzdHJva2U9InJnYigyMDQsIDIwNCwgMjA0KSIgc3Ryb2tlLXdpZHRoPSIxcHgiLz48bGluZSB4MT0iMTMyMi42MzU0MTY2NjY2NjY1IiB5MT0iMCIgeDI9IjEzMjIuNjM1NDE2NjY2NjY2NSIgeTI9IjUiIHN0eWxlPSJ2aXNpYmlsaXR5OiBpbmhlcml0OyIgZmlsbD0icmdiKDAsIDAsIDApIiBzdHJva2U9InJnYigyMDQsIDIwNCwgMjA0KSIgc3Ryb2tlLXdpZHRoPSIxcHgiLz48bGluZSB4MT0iMTQ0Mi44NzUiIHkxPSIwIiB4Mj0iMTQ0Mi44NzUiIHkyPSI1IiBzdHlsZT0idmlzaWJpbGl0eTogaW5oZXJpdDsiIGZpbGw9InJnYigwLCAwLCAwKSIgc3Ryb2tlPSJyZ2IoMjA0LCAyMDQsIDIwNCkiIHN0cm9rZS13aWR0aD0iMXB4Ii8+PC9nPjxnIHRyYW5zZm9ybT0idHJhbnNsYXRlKDAsIDgpIj48dGV4dCB4PSIwIiB5PSIwIiBkeD0iMGVtIiBkeT0iMC45NWVtIiBzdHlsZT0idGV4dC1hbmNob3I6IG1pZGRsZTsgdmlzaWJpbGl0eTogaGlkZGVuOyBmb250LWZhbWlseTogJnF1b3Q7SGVsdmV0aWNhIE5ldWUmcXVvdDssIHNhbnMtc2VyaWY7IGZvbnQtc2l6ZTogMTJweDsgZm9udC13ZWlnaHQ6IDIwMDsiIGZpbGw9InJnYig1MCwgNDksIDYzKSIgc3Ryb2tlPSJub25lIiBzdHJva2Utd2lkdGg9IjFweCI+LTU8L3RleHQ+PHRleHQgeD0iMTIwLjIzOTU4MzMzMzMzMzMzIiB5PSIwIiBkeD0iMGVtIiBkeT0iMC45NWVtIiBzdHlsZT0idGV4dC1hbmNob3I6IG1pZGRsZTsgdmlzaWJpbGl0eTogaW5oZXJpdDsgZm9udC1mYW1pbHk6ICZxdW90O0hlbHZldGljYSBOZXVlJnF1b3Q7LCBzYW5zLXNlcmlmOyBmb250LXNpemU6IDEycHg7IGZvbnQtd2VpZ2h0OiAyMDA7IiBmaWxsPSJyZ2IoNTAsIDQ5LCA2MykiIHN0cm9rZT0ibm9uZSIgc3Ryb2tlLXdpZHRoPSIxcHgiPjA8L3RleHQ+PHRleHQgeD0iMjQwLjQ3OTE2NjY2NjY2NjY2IiB5PSIwIiBkeD0iMGVtIiBkeT0iMC45NWVtIiBzdHlsZT0idGV4dC1hbmNob3I6IG1pZGRsZTsgdmlzaWJpbGl0eTogaW5oZXJpdDsgZm9udC1mYW1pbHk6ICZxdW90O0hlbHZldGljYSBOZXVlJnF1b3Q7LCBzYW5zLXNlcmlmOyBmb250LXNpemU6IDEycHg7IGZvbnQtd2VpZ2h0OiAyMDA7IiBmaWxsPSJyZ2IoNTAsIDQ5LCA2MykiIHN0cm9rZT0ibm9uZSIgc3Ryb2tlLXdpZHRoPSIxcHgiPjU8L3RleHQ+PHRleHQgeD0iMzYwLjcxODc1IiB5PSIwIiBkeD0iMGVtIiBkeT0iMC45NWVtIiBzdHlsZT0idGV4dC1hbmNob3I6IG1pZGRsZTsgdmlzaWJpbGl0eTogaW5oZXJpdDsgZm9udC1mYW1pbHk6ICZxdW90O0hlbHZldGljYSBOZXVlJnF1b3Q7LCBzYW5zLXNlcmlmOyBmb250LXNpemU6IDEycHg7IGZvbnQtd2VpZ2h0OiAyMDA7IiBmaWxsPSJyZ2IoNTAsIDQ5LCA2MykiIHN0cm9rZT0ibm9uZSIgc3Ryb2tlLXdpZHRoPSIxcHgiPjEwPC90ZXh0Pjx0ZXh0IHg9IjQ4MC45NTgzMzMzMzMzMzMzIiB5PSIwIiBkeD0iMGVtIiBkeT0iMC45NWVtIiBzdHlsZT0idGV4dC1hbmNob3I6IG1pZGRsZTsgdmlzaWJpbGl0eTogaW5oZXJpdDsgZm9udC1mYW1pbHk6ICZxdW90O0hlbHZldGljYSBOZXVlJnF1b3Q7LCBzYW5zLXNlcmlmOyBmb250LXNpemU6IDEycHg7IGZvbnQtd2VpZ2h0OiAyMDA7IiBmaWxsPSJyZ2IoNTAsIDQ5LCA2MykiIHN0cm9rZT0ibm9uZSIgc3Ryb2tlLXdpZHRoPSIxcHgiPjE1PC90ZXh0Pjx0ZXh0IHg9IjYwMS4xOTc5MTY2NjY2NjY3IiB5PSIwIiBkeD0iMGVtIiBkeT0iMC45NWVtIiBzdHlsZT0idGV4dC1hbmNob3I6IG1pZGRsZTsgdmlzaWJpbGl0eTogaW5oZXJpdDsgZm9udC1mYW1pbHk6ICZxdW90O0hlbHZldGljYSBOZXVlJnF1b3Q7LCBzYW5zLXNlcmlmOyBmb250LXNpemU6IDEycHg7IGZvbnQtd2VpZ2h0OiAyMDA7IiBmaWxsPSJyZ2IoNTAsIDQ5LCA2MykiIHN0cm9rZT0ibm9uZSIgc3Ryb2tlLXdpZHRoPSIxcHgiPjIwPC90ZXh0Pjx0ZXh0IHg9IjcyMS40Mzc1IiB5PSIwIiBkeD0iMGVtIiBkeT0iMC45NWVtIiBzdHlsZT0idGV4dC1hbmNob3I6IG1pZGRsZTsgdmlzaWJpbGl0eTogaW5oZXJpdDsgZm9udC1mYW1pbHk6ICZxdW90O0hlbHZldGljYSBOZXVlJnF1b3Q7LCBzYW5zLXNlcmlmOyBmb250LXNpemU6IDEycHg7IGZvbnQtd2VpZ2h0OiAyMDA7IiBmaWxsPSJyZ2IoNTAsIDQ5LCA2MykiIHN0cm9rZT0ibm9uZSIgc3Ryb2tlLXdpZHRoPSIxcHgiPjI1PC90ZXh0Pjx0ZXh0IHg9Ijg0MS42NzcwODMzMzMzMzM0IiB5PSIwIiBkeD0iMGVtIiBkeT0iMC45NWVtIiBzdHlsZT0idGV4dC1hbmNob3I6IG1pZGRsZTsgdmlzaWJpbGl0eTogaW5oZXJpdDsgZm9udC1mYW1pbHk6ICZxdW90O0hlbHZldGljYSBOZXVlJnF1b3Q7LCBzYW5zLXNlcmlmOyBmb250LXNpemU6IDEycHg7IGZvbnQtd2VpZ2h0OiAyMDA7IiBmaWxsPSJyZ2IoNTAsIDQ5LCA2MykiIHN0cm9rZT0ibm9uZSIgc3Ryb2tlLXdpZHRoPSIxcHgiPjMwPC90ZXh0Pjx0ZXh0IHg9Ijk2MS45MTY2NjY2NjY2NjY2IiB5PSIwIiBkeD0iMGVtIiBkeT0iMC45NWVtIiBzdHlsZT0idGV4dC1hbmNob3I6IG1pZGRsZTsgdmlzaWJpbGl0eTogaW5oZXJpdDsgZm9udC1mYW1pbHk6ICZxdW90O0hlbHZldGljYSBOZXVlJnF1b3Q7LCBzYW5zLXNlcmlmOyBmb250LXNpemU6IDEycHg7IGZvbnQtd2VpZ2h0OiAyMDA7IiBmaWxsPSJyZ2IoNTAsIDQ5LCA2MykiIHN0cm9rZT0ibm9uZSIgc3Ryb2tlLXdpZHRoPSIxcHgiPjM1PC90ZXh0Pjx0ZXh0IHg9IjEwODIuMTU2MjUiIHk9IjAiIGR4PSIwZW0iIGR5PSIwLjk1ZW0iIHN0eWxlPSJ0ZXh0LWFuY2hvcjogbWlkZGxlOyB2aXNpYmlsaXR5OiBpbmhlcml0OyBmb250LWZhbWlseTogJnF1b3Q7SGVsdmV0aWNhIE5ldWUmcXVvdDssIHNhbnMtc2VyaWY7IGZvbnQtc2l6ZTogMTJweDsgZm9udC13ZWlnaHQ6IDIwMDsiIGZpbGw9InJnYig1MCwgNDksIDYzKSIgc3Ryb2tlPSJub25lIiBzdHJva2Utd2lkdGg9IjFweCI+NDA8L3RleHQ+PHRleHQgeD0iMTIwMi4zOTU4MzMzMzMzMzM1IiB5PSIwIiBkeD0iMGVtIiBkeT0iMC45NWVtIiBzdHlsZT0idGV4dC1hbmNob3I6IG1pZGRsZTsgdmlzaWJpbGl0eTogaW5oZXJpdDsgZm9udC1mYW1pbHk6ICZxdW90O0hlbHZldGljYSBOZXVlJnF1b3Q7LCBzYW5zLXNlcmlmOyBmb250LXNpemU6IDEycHg7IGZvbnQtd2VpZ2h0OiAyMDA7IiBmaWxsPSJyZ2IoNTAsIDQ5LCA2MykiIHN0cm9rZT0ibm9uZSIgc3Ryb2tlLXdpZHRoPSIxcHgiPjQ1PC90ZXh0Pjx0ZXh0IHg9IjEzMjIuNjM1NDE2NjY2NjY2NSIgeT0iMCIgZHg9IjBlbSIgZHk9IjAuOTVlbSIgc3R5bGU9InRleHQtYW5jaG9yOiBtaWRkbGU7IHZpc2liaWxpdHk6IGluaGVyaXQ7IGZvbnQtZmFtaWx5OiAmcXVvdDtIZWx2ZXRpY2EgTmV1ZSZxdW90Oywgc2Fucy1zZXJpZjsgZm9udC1zaXplOiAxMnB4OyBmb250LXdlaWdodDogMjAwOyIgZmlsbD0icmdiKDUwLCA0OSwgNjMpIiBzdHJva2U9Im5vbmUiIHN0cm9rZS13aWR0aD0iMXB4Ij41MDwvdGV4dD48dGV4dCB4PSIxNDQyLjg3NSIgeT0iMCIgZHg9IjBlbSIgZHk9IjAuOTVlbSIgc3R5bGU9InRleHQtYW5jaG9yOiBtaWRkbGU7IHZpc2liaWxpdHk6IGhpZGRlbjsgZm9udC1mYW1pbHk6ICZxdW90O0hlbHZldGljYSBOZXVlJnF1b3Q7LCBzYW5zLXNlcmlmOyBmb250LXNpemU6IDEycHg7IGZvbnQtd2VpZ2h0OiAyMDA7IiBmaWxsPSJyZ2IoNTAsIDQ5LCA2MykiIHN0cm9rZT0ibm9uZSIgc3Ryb2tlLXdpZHRoPSIxcHgiPjU1PC90ZXh0PjwvZz48bGluZSB4MT0iMCIgeTE9IjAiIHgyPSIxNDQyLjg3NSIgeTI9IjAiIGZpbGw9InJnYigwLCAwLCAwKSIgc3Ryb2tlPSJyZ2IoMjA0LCAyMDQsIDIwNCkiIHN0cm9rZS13aWR0aD0iMXB4Ii8+PC9nPjwvZz48L2c+PC9nPjwvc3ZnPg==;" vertex="1" parent="1">
          <mxGeometry y="20" width="897.84" height="240" as="geometry" />
        </mxCell>
        <mxCell id="Boh7SmjgZEzRpbHG4O-v-3" value="" style="rounded=0;whiteSpace=wrap;html=1;dashed=1;" parent="1" vertex="1">
          <mxGeometry x="700" y="160" width="150" height="80" as="geometry" />
        </mxCell>
        <mxCell id="Boh7SmjgZEzRpbHG4O-v-10" value="" style="group" parent="1" vertex="1" connectable="0">
          <mxGeometry x="710" y="215" width="140" height="20" as="geometry" />
        </mxCell>
        <mxCell id="Boh7SmjgZEzRpbHG4O-v-11" value="" style="endArrow=none;html=1;fillColor=#1ba1e2;strokeWidth=2;strokeColor=#E37200;" parent="Boh7SmjgZEzRpbHG4O-v-10" edge="1">
          <mxGeometry width="50" height="50" relative="1" as="geometry">
            <mxPoint y="-2" as="sourcePoint" />
            <mxPoint x="20" y="-2" as="targetPoint" />
          </mxGeometry>
        </mxCell>
        <mxCell id="Boh7SmjgZEzRpbHG4O-v-4" value="" style="endArrow=none;html=1;fillColor=#0050ef;strokeWidth=2;strokeColor=#0066CC;" parent="1" edge="1">
          <mxGeometry width="50" height="50" relative="1" as="geometry">
            <mxPoint x="710" y="178" as="sourcePoint" />
            <mxPoint x="730" y="178" as="targetPoint" />
          </mxGeometry>
        </mxCell>
        <mxCell id="Boh7SmjgZEzRpbHG4O-v-5" value="Weibo dataset&lt;br&gt;&lt;br&gt;People&#39;s daily dataset&lt;br&gt;&lt;br&gt;MSRA dataset&lt;br&gt;&lt;br&gt;Chinese literature dataset" style="text;html=1;strokeColor=none;fillColor=none;align=left;verticalAlign=middle;whiteSpace=wrap;rounded=0;fontSize=8;" parent="1" vertex="1">
          <mxGeometry x="738" y="170" width="140" height="70" as="geometry" />
        </mxCell>
        <mxCell id="Boh7SmjgZEzRpbHG4O-v-8" value="" style="endArrow=none;html=1;fillColor=#a20025;strokeWidth=2;strokeColor=#CC0066;" parent="1" edge="1">
          <mxGeometry width="50" height="50" relative="1" as="geometry">
            <mxPoint x="710" y="196" as="sourcePoint" />
            <mxPoint x="730" y="196" as="targetPoint" />
          </mxGeometry>
        </mxCell>
        <mxCell id="Boh7SmjgZEzRpbHG4O-v-14" value="" style="endArrow=none;html=1;fontStyle=1;strokeWidth=2;strokeColor=#B3B3B3;" parent="1" edge="1">
          <mxGeometry width="50" height="50" relative="1" as="geometry">
            <mxPoint x="710" y="232" as="sourcePoint" />
            <mxPoint x="730" y="232" as="targetPoint" />
          </mxGeometry>
        </mxCell>
      </root>
    </mxGraphModel>
  </diagram>
</mxfile>
